<?xml version="1.0" encoding="UTF-8" standalone="no"?>
<!-- Generator: Adobe Illustrator 21.1.0, SVG Export Plug-In . SVG Version: 6.00 Build 0)  -->

<svg
   xmlns:dc="http://purl.org/dc/elements/1.1/"
   xmlns:cc="http://creativecommons.org/ns#"
   xmlns:rdf="http://www.w3.org/1999/02/22-rdf-syntax-ns#"
   xmlns:svg="http://www.w3.org/2000/svg"
   xmlns="http://www.w3.org/2000/svg"
   xmlns:sodipodi="http://sodipodi.sourceforge.net/DTD/sodipodi-0.dtd"
   xmlns:inkscape="http://www.inkscape.org/namespaces/inkscape"
   version="1.1"
   id="svg2"
   inkscape:export-filename="C:\Users\Stephan\Desktop\double-shape.png"
   inkscape:export-xdpi="90"
   inkscape:export-ydpi="90"
   inkscape:version="0.92.4 (5da689c313, 2019-01-14)"
   sodipodi:docname="harbour-screentapshot2.svg"
   x="0px"
   y="0px"
   viewBox="0 0 85.999998 85.999998"
   xml:space="preserve"
   width="86"
   height="86"><metadata
   id="metadata38"><rdf:RDF><cc:Work
       rdf:about=""><dc:format>image/svg+xml</dc:format><dc:type
         rdf:resource="http://purl.org/dc/dcmitype/StillImage" /><dc:title></dc:title></cc:Work></rdf:RDF></metadata><defs
   id="defs36" />
<style
   type="text/css"
   id="style2">
	.st0{fill:url(#path11_1_);}
	.st1{fill:#FFFFFF;fill-opacity:0;}
	.st2{fill:#FFFFFF;}
	.st3{opacity:0.6;}
	.st4{opacity:0.6;fill:#FFFFFF;enable-background:new    ;}
</style>
<sodipodi:namedview
   bordercolor="#666666"
   borderopacity="1.0"
   id="base"
   inkscape:current-layer="layer2"
   inkscape:cx="-65.127176"
   inkscape:cy="21.083005"
   inkscape:document-units="px"
   inkscape:pageopacity="0.0"
   inkscape:pageshadow="2"
   inkscape:snap-bbox="true"
   inkscape:snap-global="true"
   inkscape:window-height="1015"
   inkscape:window-maximized="1"
   inkscape:window-width="1920"
   inkscape:window-x="0"
   inkscape:window-y="36"
   inkscape:zoom="2.8284271"
   pagecolor="#ffffff"
   showgrid="true">
	<inkscape:grid
   empspacing="5"
   enabled="true"
   id="grid2985"
   snapvisiblegridlinesonly="true"
   type="xygrid"
   visible="true">
		</inkscape:grid>
</sodipodi:namedview>
<g
   id="layer2"
   transform="translate(0,-3.4000015)"
   inkscape:groupmode="layer"
   inkscape:label="Ebene">
	<linearGradient
   id="path11_1_"
   gradientUnits="userSpaceOnUse"
   x1="0"
   y1="46.700001"
   x2="85.400002"
   y2="46.700001">
		<stop
   offset="0"
   style="stop-color:#BF002A"
   id="stop6" />
		<stop
   offset="1"
   style="stop-color:#D6002F"
   id="stop8" />
	</linearGradient>
	<path
   id="path11"
   inkscape:connector-curvature="0"
   class="st0"
   d="M 84,4 H 42.7 C 19.1,4 0,23.1 0,46.7 V 88 c 0,0.8 0.6,1.4 1.4,1.4 h 41.3 c 23.6,0 42.7,-19.1 42.7,-42.7 V 5.4 C 85.4,4.6 84.8,4 84,4 Z"
   style="fill:url(#path11_1_)" />
</g>
<g
   id="icon-m-phone"
   transform="translate(0,0.59999847)">
	<rect
   id="icon-m-phone_1_"
   x="3"
   y="3"
   class="st1"
   width="79.400002"
   height="79.400002"
   style="fill:#ffffff;fill-opacity:0" />
	<path
   class="st2"
   d="M 57.6,73.7 H 27.8 c -3.4,0 -6.3,-2.8 -6.3,-6.3 V 17.9 c 0,-3.4 2.8,-6.3 6.3,-6.3 h 29.7 c 3.4,0 6.3,2.8 6.3,6.3 v 49.6 c 0,3.4 -2.8,6.2 -6.2,6.2 z M 27.8,14.1 c -2.1,0 -3.8,1.7 -3.8,3.8 v 49.6 c 0,2.1 1.7,3.8 3.8,3.8 h 29.7 c 2.1,0 3.8,-1.7 3.8,-3.8 V 17.9 c 0,-2.1 -1.7,-3.8 -3.8,-3.8 H 27.8 Z"
   id="path14"
   inkscape:connector-curvature="0"
   style="fill:#ffffff" />
	<g
   class="st3"
   id="g18"
   style="opacity:0.6">
		<path
   class="st2"
   d="M 55.1,65 H 30.3 c -2.1,0 -3.7,-1.7 -3.7,-3.7 V 24 c 0,-2.1 1.7,-3.7 3.7,-3.7 h 24.8 c 2.1,0 3.7,1.7 3.7,3.7 v 37.2 c 0,2.1 -1.6,3.8 -3.7,3.8 z M 30.3,22.8 c -0.7,0 -1.2,0.6 -1.2,1.2 v 37.2 c 0,0.7 0.6,1.2 1.2,1.2 h 24.8 c 0.7,0 1.2,-0.6 1.2,-1.2 V 24 c 0,-0.7 -0.6,-1.2 -1.2,-1.2 0,0 -24.8,0 -24.8,0 z"
   id="path16"
   inkscape:connector-curvature="0"
   style="fill:#ffffff" />
	</g>
</g>
<g
   id="icon-m-camera"
   transform="translate(0,0.59999847)">
	<g
   id="g31">
		<path
   class="st2"
   d="M 52.8,35.3 H 42 c -0.8,0 -1.4,-0.6 -1.4,-1.4 v -6.8 c 0,-0.8 0.6,-1.4 1.4,-1.4 h 10.8 c 0.8,0 1.4,0.6 1.4,1.4 v 6.8 c 0,0.8 -0.6,1.4 -1.4,1.4 z M 42,26.3 c -0.5,0 -0.9,0.4 -0.9,0.9 V 34 c 0,0.5 0.4,0.9 0.9,0.9 h 10.8 c 0.5,0 0.9,-0.4 0.9,-0.9 v -6.8 c 0,-0.5 -0.4,-0.9 -0.9,-0.9 z"
   id="path21"
   inkscape:connector-curvature="0"
   style="fill:#ffffff" />
		<path
   class="st4"
   d="m 49.7,33.7 c -1.7,0 -3.1,-1.4 -3.1,-3.1 0,-1.7 1.4,-3.1 3.1,-3.1 1.7,0 3.1,1.4 3.1,3.1 0,1.6 -1.4,3.1 -3.1,3.1 z m 0,-5.7 c -1.4,0 -2.6,1.2 -2.6,2.6 0,1.4 1.2,2.6 2.6,2.6 1.4,0 2.6,-1.2 2.6,-2.6 C 52.2,29.1 51.1,28 49.7,28 Z"
   id="path23"
   inkscape:connector-curvature="0"
   style="opacity:0.6;fill:#ffffff;enable-background:new" />
		<circle
   class="st2"
   cx="49.700001"
   cy="30.5"
   r="0.89999998"
   id="circle25"
   style="fill:#ffffff" />
		<g
   class="st3"
   id="g29"
   style="opacity:0.6">
			<path
   class="st2"
   d="m 44.5,29.4 h -2.3 c -0.3,0 -0.6,-0.3 -0.6,-0.6 V 28 c 0,-0.3 0.3,-0.6 0.6,-0.6 h 2.3 c 0.3,0 0.6,0.3 0.6,0.6 v 0.9 c 0,0.2 -0.3,0.5 -0.6,0.5 z m 0,-0.6 v 0.3 z M 42.2,28 v 0.9 h 2.3 V 28 Z"
   id="path27"
   inkscape:connector-curvature="0"
   style="fill:#ffffff" />
		</g>
	</g>
	<rect
   id="icon-m-camera_1_"
   x="38.299999"
   y="21.5"
   class="st1"
   width="18.1"
   height="18.1"
   style="fill:#ffffff;fill-opacity:0" />
</g>
</svg>